# xmcd CD database file
#
# Track frame offsets:
#	150
#	38856
#	82047
#	118225
#	158495
#	190658
#	244227
#	273388
#
# Disc length: 4169 seconds
#
# Revision: 0
# Processed by: cddbd v1.5.2PL0 Copyright (c) Steve Scherf et al.
# Submitted via: CDex 1.70beta2
#
DISCID=66104708
DTITLE=The Vandermark 5 - Beat Reader
DYEAR=2008
DGENRE=Jazz
TTITLE0=Friction
TTITLE1=New Acrylic
TTITLE2=Any Given Number
TTITLE3=Signposts
TTITLE4=Speedplay
TTITLE5=Compass Shatters Magnet
TTITLE6=Further From the Truth
TTITLE7=Desireless
EXTD=YEAR: 2008
EXTT0=
EXTT1=
EXTT2=
EXTT3=
EXTT4=
EXTT5=
EXTT6=
EXTT7=
PLAYORDER=
